<svg aria-hidden="true" xmlns="http://www.w3.org/2000/svg" width="22" height="22" viewBox="0 0 16 16">
  <path id="dots-vertical" d="M9.5 13a1.5 1.5 0 1 1-3 0 1.5 1.5 0 0 1 3 0zm0-5a1.5 1.5 0 1 1-3 0 1.5 1.5 0 0 1 3 0zm0-5a1.5 1.5 0 1 1-3 0 1.5 1.5 0 0 1 3 0z" />
  <path id="floppy-disk" d="M13.014 3.638v11.133a.476.476 0 0 1-.475.475H3.214a1.342 1.342 0 0 1-.813-.333L1.325 13.86a1.301 1.301 0 0 1-.34-.808V3.638a.476.476 0 0 1 .476-.475H12.54a.476.476 0 0 1 .474.475zm-2.208.954a.476.476 0 0 0-.475-.475H3.67a.476.476 0 0 0-.475.475v3.212a.476.476 0 0 0 .475.475h6.66a.476.476 0 0 0 .476-.475zm-.5 5.883a.477.477 0 0 0-.475-.476H4.16a.477.477 0 0 0-.475.476v3.442a.476.476 0 0 0 .475.475h5.67a.476.476 0 0 0 .475-.475zm-4.356.635H4.74v2.2h1.21z"/>
  <path id="plus" d="M 241.99219,407.91016 L 241.99219,310.44922 L 144.72656,310.44922 L 144.72656,294.43359 L 241.99219,294.43359 L 241.99219,197.36328 L 257.61719,197.36328 L 257.61719,294.43359 L 355.27344,294.43359 L 355.27344,310.44922 L 257.61719,310.44922 L 257.61719,407.91016 L 241.99219,407.91016 z" />
  <path id="arrow-down" d="M0.561,20.971l45.951,57.605c0.76,0.951,2.367,0.951,3.127,0l45.956-57.609c0.547-0.689,0.709-1.716,0.414-2.61
		c-0.061-0.187-0.129-0.33-0.186-0.437c-0.351-0.65-1.025-1.056-1.765-1.056H2.093c-0.736,0-1.414,0.405-1.762,1.056
		c-0.059,0.109-0.127,0.253-0.184,0.426C-0.15,19.251,0.011,20.28,0.561,20.971z"/>
</svg>